<?xml version="1.0" standalone="no"?>
<!DOCTYPE svg PUBLIC "-//W3C//DTD SVG 20010904//EN"
 "http://www.w3.org/TR/2001/REC-SVG-20010904/DTD/svg10.dtd">
<svg version="1.0" xmlns="http://www.w3.org/2000/svg"
 width="50.000000pt" height="50.000000pt" viewBox="0 0 157.000000 156.000000"
 preserveAspectRatio="xMidYMid meet">
<metadata>
Created by potrace 1.16, written by Peter Selinger 2001-2019
</metadata>
<g transform="translate(0.000000,156.000000) scale(0.100000,-0.100000)"
fill="#00ffff" stroke="none">
<path d="M699 1401 c-17 -18 -29 -40 -29 -56 0 -26 39 -75 60 -75 5 0 10 -11
10 -24 0 -23 -2 -24 -107 -27 -96 -4 -113 -7 -155 -32 -50 -29 -96 -88 -119
-151 -10 -27 -24 -43 -51 -57 -41 -21 -78 -80 -78 -124 0 -63 57 -135 106
-135 16 0 32 -13 52 -42 41 -59 74 -87 119 -103 l38 -13 5 -149 5 -148 45 -22
c92 -46 309 -39 368 12 l27 23 -4 140 -3 140 29 16 c35 18 98 85 108 115 3 12
13 21 21 21 8 0 28 7 45 15 94 49 92 203 -5 249 -20 9 -36 24 -36 33 0 26 -50
116 -83 151 -52 55 -75 62 -192 62 l-105 0 0 25 c0 16 6 25 16 25 24 0 74 55
74 82 -1 73 -105 104 -161 49z m319 -231 c119 -86 159 -310 83 -465 -22 -45
-46 -76 -73 -96 l-41 -29 -156 1 c-86 0 -195 4 -244 8 -76 7 -92 12 -124 37
-47 39 -90 123 -102 201 -22 139 34 294 122 340 53 27 85 31 293 32 l201 1 41
-30z m-53 -652 c3 -24 5 -88 3 -143 l-3 -99 -50 -20 c-70 -26 -220 -26 -290 0
l-50 20 -3 142 -3 142 195 0 195 0 6 -42z"/>
<path d="M512 1049 c-18 -12 -45 -42 -60 -68 -23 -38 -27 -57 -27 -116 1 -83
24 -137 82 -184 l38 -31 210 0 211 0 31 32 c53 57 73 105 73 181 0 71 -14 112
-54 155 -43 48 -62 52 -273 52 -184 0 -200 -2 -231 -21z m445 -16 c19 -9 47
-34 61 -56 22 -34 26 -51 26 -111 0 -60 -4 -79 -26 -117 -45 -77 -51 -79 -265
-79 -161 0 -192 2 -213 17 -81 56 -113 177 -71 268 30 65 53 79 140 86 169 13
311 10 348 -8z"/>
</g>
</svg>
